<svg width="49" height="48" viewBox="0 0 49 48" fill="none" xmlns="http://www.w3.org/2000/svg">
<rect width="48.0318" height="47.1691" rx="10" fill="#D9DFFF"/>
<path fill-rule="evenodd" clip-rule="evenodd" d="M24.535 36.9935C31.989 36.9935 38.0318 30.9508 38.0318 23.4968C38.0318 16.0427 31.989 10 24.535 10C17.0809 10 11.0382 16.0427 11.0382 23.4968C11.0382 25.8035 11.6169 27.9751 12.637 29.8743C12.6326 32.322 12.1116 35.9377 10 36.9935C10 37.3345 11.5117 37.4067 17.5138 35.0258C19.5594 36.2742 21.9632 36.9935 24.535 36.9935ZM24.535 32.9586C19.3094 32.9586 15.0732 28.7224 15.0732 23.4968C15.0732 18.2712 19.3094 14.035 24.535 14.035C29.7606 14.035 33.9968 18.2712 33.9968 23.4968C33.9968 28.7224 29.7606 32.9586 24.535 32.9586Z" fill="#407BFF"/>
</svg>
