<svg width="16" height="16" viewBox="0 0 16 16" fill="none" xmlns="http://www.w3.org/2000/svg">
<path d="M12.2382 8.4856C12.26 10.8356 14.3 11.6177 14.3225 11.6277C14.3052 11.6827 13.9966 12.7422 13.2478 13.8364C12.6006 14.7824 11.9287 15.7249 10.8706 15.7446C9.83083 15.7636 9.49646 15.1279 8.30758 15.1279C7.11908 15.1279 6.74771 15.7249 5.76333 15.7636C4.74183 15.8024 3.96396 14.7405 3.31133 13.7981C1.97783 11.8701 0.958705 8.34998 2.32708 5.97385C3.00683 4.79385 4.22183 4.04673 5.54046 4.02748C6.54346 4.00835 7.49021 4.70223 8.10333 4.70223C8.71608 4.70223 9.86658 3.86773 11.0761 3.99023C11.5825 4.01135 13.0037 4.19473 13.9163 5.53073C13.843 5.57635 12.2206 6.52085 12.2382 8.4856ZM10.2841 2.71485C10.8263 2.05848 11.1913 1.14448 11.0918 0.235352C10.3101 0.266727 9.36483 0.756226 8.80421 1.41235C8.30171 1.99323 7.86171 2.92323 7.98033 3.81435C8.85171 3.88185 9.74171 3.3716 10.2841 2.71485Z" fill="black"/>
</svg>
